<svg id="_0209_polaroid" xmlns="http://www.w3.org/2000/svg" xmlns:xlink="http://www.w3.org/1999/xlink" viewBox="0 0 500 500" data-imageid="polaroid-32" imageName="Polaroid" class="illustrations_image" style="width: 161px;"><defs><style>.cls-1_polaroid-32{fill:none;}.cls-1_polaroid-32,.cls-2_polaroid-32,.cls-3_polaroid-32,.cls-4_polaroid-32,.cls-5_polaroid-32,.cls-6_polaroid-32,.cls-7_polaroid-32,.cls-8_polaroid-32,.cls-9_polaroid-32,.cls-10_polaroid-32,.cls-11_polaroid-32,.cls-12_polaroid-32,.cls-13_polaroid-32,.cls-14_polaroid-32,.cls-15_polaroid-32,.cls-16_polaroid-32,.cls-17_polaroid-32,.cls-18_polaroid-32,.cls-19_polaroid-32,.cls-20_polaroid-32,.cls-21_polaroid-32,.cls-22_polaroid-32,.cls-23_polaroid-32,.cls-24_polaroid-32{stroke-width:0px;}.cls-2_polaroid-32{fill:url(#linear-gradient);}.cls-3_polaroid-32{fill:url(#linear-gradient-11-polaroid-32);}.cls-4_polaroid-32{fill:url(#linear-gradient-12-polaroid-32);}.cls-5_polaroid-32{fill:url(#linear-gradient-13-polaroid-32);}.cls-6_polaroid-32{fill:url(#linear-gradient-10-polaroid-32);}.cls-7_polaroid-32{fill:url(#linear-gradient-17-polaroid-32);}.cls-8_polaroid-32{fill:url(#linear-gradient-16-polaroid-32);}.cls-9_polaroid-32{fill:url(#linear-gradient-15-polaroid-32);}.cls-10_polaroid-32{fill:url(#linear-gradient-18-polaroid-32);}.cls-11_polaroid-32{fill:url(#linear-gradient-14-polaroid-32);}.cls-12_polaroid-32{fill:url(#linear-gradient-4-polaroid-32);}.cls-13_polaroid-32{fill:url(#linear-gradient-2-polaroid-32);}.cls-14_polaroid-32{fill:url(#linear-gradient-3-polaroid-32);}.cls-15_polaroid-32{fill:url(#linear-gradient-8-polaroid-32);}.cls-16_polaroid-32{fill:url(#linear-gradient-9-polaroid-32);}.cls-17_polaroid-32{fill:url(#linear-gradient-7-polaroid-32);}.cls-18_polaroid-32{fill:url(#linear-gradient-5-polaroid-32);}.cls-19_polaroid-32{fill:url(#linear-gradient-6-polaroid-32);}.cls-20_polaroid-32{isolation:isolate;opacity:.24;}.cls-20_polaroid-32,.cls-24_polaroid-32{fill:#68e1fd;}.cls-21_polaroid-32{fill:#231f20;}.cls-22_polaroid-32{fill:#fff;}.cls-23_polaroid-32{fill:#ffaa71;}</style><linearGradient id="linear-gradient-polaroid-32" x1="629.49" y1="1434.89" x2="1046.26" y2="1907.82" gradientTransform="translate(-486.17 1851.46) scale(1 -1)" gradientUnits="userSpaceOnUse"><stop offset="0" stop-color="#231f20" stop-opacity="0"/><stop offset="1" stop-color="#231f20"/></linearGradient><linearGradient id="linear-gradient-2-polaroid-32" x1="739.28" y1="1612.05" x2="736.29" y2="1709.53" gradientTransform="translate(-486.17 1851.46) scale(1 -1)" gradientUnits="userSpaceOnUse"><stop offset="0" stop-color="#fff" stop-opacity="0"/><stop offset=".95" stop-color="#fff"/></linearGradient><linearGradient id="linear-gradient-3-polaroid-32" x1="786.71" y1="1580.82" x2="609.71" y2="1647.2" xlink:href="#linear-gradient-2-polaroid-32"/><linearGradient id="linear-gradient-4-polaroid-32" x1="725.64" y1="1634.23" x2="730.12" y2="1523" gradientTransform="translate(-471 1856.62) scale(1 -1)" xlink:href="#linear-gradient-polaroid-32"/><linearGradient id="linear-gradient-5-polaroid-32" x1="677.89" y1="1681.64" x2="748.09" y2="1681.64" gradientTransform="translate(-471 1856.62) scale(1 -1)" xlink:href="#linear-gradient-polaroid-32"/><linearGradient id="linear-gradient-6-polaroid-32" x1="704.45" y1="1699.05" x2="730.16" y2="1648.81" gradientTransform="translate(-471 1856.62) scale(1 -1)" xlink:href="#linear-gradient-polaroid-32"/><linearGradient id="linear-gradient-7-polaroid-32" x1="704.48" y1="1693.04" x2="716.64" y2="1669.3" gradientTransform="translate(-471 1856.62) scale(1 -1)" xlink:href="#linear-gradient-2-polaroid-32"/><linearGradient id="linear-gradient-8-polaroid-32" x1="638.2" y1="1645.35" x2="668.7" y2="1645.35" gradientTransform="translate(-471 1856.62) scale(1 -1)" xlink:href="#linear-gradient-2-polaroid-32"/><linearGradient id="linear-gradient-9-polaroid-32" x1="665.34" y1="1704.53" x2="679.24" y2="1630.09" gradientTransform="translate(-781.55 1706.06) rotate(10.41) scale(1 -1)" xlink:href="#linear-gradient-polaroid-32"/><linearGradient id="linear-gradient-10-polaroid-32" x1="758.54" y1="1703.13" x2="784.11" y2="1703.13" gradientTransform="translate(-471 1856.62) scale(1 -1)" xlink:href="#linear-gradient-polaroid-32"/><linearGradient id="linear-gradient-11-polaroid-32" x1="773.5" y1="1672.33" x2="791.28" y2="1672.33" gradientTransform="translate(-471 1856.62) scale(1 -1)" xlink:href="#linear-gradient-polaroid-32"/><linearGradient id="linear-gradient-12-polaroid-32" x1="611.37" y1="1592.13" x2="838.23" y2="1592.13" gradientTransform="translate(-471 1856.62) scale(1 -1)" xlink:href="#linear-gradient-2-polaroid-32"/><linearGradient id="linear-gradient-13-polaroid-32" x1="640" y1="1565.37" x2="823.88" y2="1565.37" gradientTransform="translate(-471 1856.62) scale(1 -1)" xlink:href="#linear-gradient-polaroid-32"/><linearGradient id="linear-gradient-14-polaroid-32" x1="765.23" y1="1515.6" x2="746.51" y2="1601.7" xlink:href="#linear-gradient-polaroid-32"/><linearGradient id="linear-gradient-15-polaroid-32" x1="753.18" y1="1508.17" x2="795.01" y2="1508.17" xlink:href="#linear-gradient-polaroid-32"/><linearGradient id="linear-gradient-16-polaroid-32" x1="776.31" y1="1475.07" x2="776.31" y2="1512.88" xlink:href="#linear-gradient-polaroid-32"/><linearGradient id="linear-gradient-17-polaroid-32" x1="888.89" y1="1112.13" x2="897.08" y2="1195.08" gradientTransform="translate(-343.3 1635) rotate(-12.2) scale(1 -1)" xlink:href="#linear-gradient-polaroid-32"/><linearGradient id="linear-gradient-18-polaroid-32" x1="757.23" y1="1523.59" x2="785.84" y2="1523.59" xlink:href="#linear-gradient-polaroid-32"/></defs><path id="background_polaroid-32" class="cls-20_polaroid-32 targetColor" d="M116.49,108.12c-15.92,24-26.24,51.8-45.39,73.32-17.27,19.39-40.97,32.72-55.94,53.94-20.62,29.21-20.16,71.66,1.09,100.41,8.69,11.75,20.27,21.14,28.96,32.94,15.34,20.73,22.09,49.08,44.04,62.67,10.22,6.33,22.42,8.48,34.33,10.09,40.3,5.53,81.08,6.8,121.65,3.81,30.57-2.26,61.2-6.93,91.75-4.29,20,1.73,39.78,6.61,59.85,6.12,20.07-.49,41.47-7.55,52.58-24.27,14.94-22.48,6.3-52.31,7.79-79.26,2.41-43.3,32-80.9,38.17-123.81,8.55-59.48-36.47-121.58-95.66-131.96-31.53-5.52-64.32,1.97-95.74-4.1-19.5-3.78-37.62-12.65-56.69-18.15-47.13-13.58-103.21.99-130.78,42.54Z" style="fill: rgb(104, 225, 253);"/><path id="shadow_polaroid-32" class="cls-2_polaroid-32" d="M136.44,241.4c-4.52,12.33-11.14,23.89-15.13,36.4-3.98,12.51-5.03,26.84,1.39,38.31,5.76,10.3,16.58,16.73,23.78,26.08,12.05,15.67,12.45,37.06,12.38,56.83,0,9.12.49,19.49,7.47,25.36,9.25,7.71,25.05,3.54,33.28,12.33,1.59,1.7,2.85,3.85,4.96,4.83s4.48.57,6.72.15l114.33-21.1c11.56-2.13,25.37-6.36,27.86-17.82,1.04-4.78-.31-9.73-1.64-14.45l-20.26-71.51c-4.29-15.15-8.61-30.42-9.84-46.12-.84-10.72-.23-21.57-1.85-32.18-3.63-22.85-17.12-42.95-36.88-54.98-13.64-8.18-29.43-11.97-45.1-14.74-25.67-4.52-55.53-6.43-79.45,5.97-24.1,12.47-13.6,43.67-22.02,66.64Z"/><g id="camera_polaroid-32"><path class="cls-24_polaroid-32 targetColor" d="M154.64,236.97l-14.4-63.85c-1.92-8.53,3.44-17,11.97-18.92.07-.02.14-.03.22-.05l153.33-32.25c8.56-1.8,16.95,3.68,18.76,12.23.02.07.03.15.04.22l13.66,69.76,24.66,22.06c5.67,5.07,7.6,13.13,4.82,20.22l-.77,1.97-220.67,45.45-5.88-9.92c-2.32-3.91-2.61-8.7-.77-12.85l15.03-34.06Z" style="fill: rgb(104, 225, 253);"/><path class="cls-13_polaroid-32" d="M154.64,236.97l-14.4-63.85c-1.92-8.53,3.44-17,11.97-18.92.07-.02.14-.03.22-.05l153.33-32.25c8.56-1.8,16.95,3.68,18.76,12.23.02.07.03.15.04.22l13.66,69.76,24.66,22.06c5.67,5.07,7.6,13.13,4.82,20.22l-.77,1.97-220.67,45.45-5.88-9.92c-2.32-3.91-2.61-8.7-.77-12.85l15.03-34.06Z"/><path class="cls-1_polaroid-32" d="M153.06,240.69l1.59-3.7-14.4-63.84c-1.96-8.48,3.32-16.94,11.8-18.9.13-.03.25-.06.38-.08l153.33-32.24c8.55-1.81,16.94,3.66,18.75,12.2.02.07.03.14.04.22l13.57,69.35-185.07,36.99Z"/><path class="cls-14_polaroid-32" d="M367.71,246.36l-.77,1.97-220.67,45.49-5.93-9.94c-2.31-3.92-2.6-8.7-.77-12.87l13.45-30.33,185.09-36.99.07.45,24.66,22.04c5.66,5.05,7.6,13.08,4.88,20.16Z"/><polygon class="cls-24_polaroid-32 targetColor" points="171.99 338.05 146.28 293.8 366.93 248.35 361.54 297.38 171.99 338.05" style="fill: rgb(104, 225, 253);"/><polygon class="cls-12_polaroid-32" points="171.99 338.05 146.28 293.8 366.93 248.35 361.54 297.38 171.99 338.05"/><circle class="cls-24_polaroid-32 targetColor" cx="241.99" cy="174.98" r="35.1" style="fill: rgb(104, 225, 253);"/><circle class="cls-18_polaroid-32" cx="241.99" cy="174.98" r="35.1"/><circle class="cls-24_polaroid-32 targetColor" cx="241.7" cy="175.04" r="27.64" style="fill: rgb(104, 225, 253);"/><circle class="cls-19_polaroid-32" cx="241.93" cy="174.14" r="12.39"/><circle class="cls-17_polaroid-32" cx="237.49" cy="171.41" r="5.86"/><circle class="cls-15_polaroid-32" cx="182.45" cy="211.28" r="15.25"/><rect class="cls-16_polaroid-32" x="157.33" y="168.82" width="40.07" height="17.04" rx="6.54" ry="6.54" transform="translate(-28.73 34.39) rotate(-10.25)"/><rect class="cls-24_polaroid-32 targetColor" x="283.47" y="138.43" width="33.63" height="29.83" rx="4.75" ry="4.75" transform="translate(-21.16 51.55) rotate(-9.48)" style="fill: rgb(104, 225, 253);"/><circle class="cls-6_polaroid-32" cx="300.33" cy="153.49" r="12.78"/><circle class="cls-3_polaroid-32" cx="311.39" cy="184.29" r="8.89"/><polygon class="cls-24_polaroid-32 targetColor" points="199.04 145.05 204.8 132.71 259.81 121.36 269.91 130.02 199.04 145.05" style="fill: rgb(104, 225, 253);"/><polygon class="cls-4_polaroid-32" points="140.37 283.88 367.23 235.19 366.93 248.35 146.28 293.8 140.37 283.88"/><polygon class="cls-5_polaroid-32" points="169 304.26 352.88 262.11 349.28 281.84 176.17 320.4 169 304.26"/><path class="cls-22_polaroid-32" d="M179.92,320.3s23.15,62,30.34,122.99l181.19-43.06s-16.18-95.98-42.16-118.4l-169.36,38.46Z"/><path class="cls-24_polaroid-32 targetColor" d="M342.14,283.65s28.51,46.32,31.81,92.18l-154.41,32.29s-19.19-82.12-31.82-89.14l154.42-35.33Z" style="fill: rgb(104, 225, 253);"/><path class="cls-11_polaroid-32" d="M342.14,283.65s28.51,46.32,31.81,92.18l-154.41,32.29s-19.19-82.12-31.82-89.14l154.42-35.33Z"/><path class="cls-23_polaroid-32" d="M322.67,386.28c-3.44,1.01-6.71,1.59-10.22,2.38-.39-2.76-2.12-15.05-2.5-17.81-.16-1.17-.29-2.49.42-3.42.46-.52,1.04-.91,1.69-1.13,1.38-.69,2.88-1.11,4.42-1.23,1.21,0,1.39,1.03,1.66,2.02.86,3.19,3.13,16.18,4.53,19.19Z"/><path class="cls-21_polaroid-32" d="M267.13,325.09c-.47,3.91.48,7.84,1.38,11.68,1.54,6.22,2.74,12.51,3.58,18.86.41,3.42.65,6.93,1.78,10.16s3.31,6.33,6.5,7.64c2.26.92,4.78.88,7.2.62,2.46-.29,4.89-.71,7.3-1.26,2.63-.47,5.18-1.29,7.59-2.43,2.43-1.15,4.39-3.12,5.52-5.56.96-2.27.92-4.82.77-7.27-.66-11.58-3.11-23-7.26-33.83-.49-1.42-1.16-2.78-2-4.03-1.35-1.64-2.98-3.04-4.8-4.14-1.83-1.25-3.73-2.52-5.9-2.97-1.73-.27-3.49-.23-5.2.12-7.54,1.25-15.42,3.65-16.47,12.41Z"/><path class="cls-9_polaroid-32" d="M267.13,325.09c-.47,3.91.48,7.84,1.38,11.68,1.54,6.22,2.74,12.51,3.58,18.86.41,3.42.65,6.93,1.78,10.16s3.31,6.33,6.5,7.64c2.26.92,4.78.88,7.2.62,2.46-.29,4.89-.71,7.3-1.26,2.63-.47,5.18-1.29,7.59-2.43,2.43-1.15,4.39-3.12,5.52-5.56.96-2.27.92-4.82.77-7.27-.66-11.58-3.11-23-7.26-33.83-.49-1.42-1.16-2.78-2-4.03-1.35-1.64-2.98-3.04-4.8-4.14-1.83-1.25-3.73-2.52-5.9-2.97-1.73-.27-3.49-.23-5.2.12-7.54,1.25-15.42,3.65-16.47,12.41Z"/><path class="cls-8_polaroid-32" d="M302.68,345.34l-.42,1.8c-.57-1.33-.94-2.73-1.1-4.16l-.85-5.26c-.28-2.32-.84-4.59-1.67-6.77-.85-2.19-2.48-3.99-4.58-5.06-2.73-1.23-5.89-.62-8.81,0-2.7.6-5.58,1.33-7.39,3.42-.93,1.21-1.64,2.57-2.1,4.02-.67,1.48-1.09,3.07-1.24,4.68,0,1.1.13,2.2.38,3.27,1.11,5.52,2.6,11.07,2.25,16.69-.24,1.84-.31,3.71-.22,5.56,0,.32.12.63.35.86.23.15.5.21.77.19,2.18.03,4.36-.07,6.53-.3l11.63-.96c1.31-.04,2.61-.28,3.85-.72.83-.34,1.59-.86,2.43-1.2,2.74-1.14,3.96-3,2.88-5.86-1.16-3.33-2.06-6.75-2.69-10.22Z"/><path class="cls-22_polaroid-32" d="M277.63,360.93c-6.24,3.26-10.52,9.34-11.48,16.31,4.13,1.54,8.78,3.57,10.02,7.79.15.52,2.31,10.47,2.82,10.69.3.09.63.09.93,0,11.51-1.99,22.92-4.47,34.22-7.45-.43-2.31-2.89-13.99-3.32-16.32-.08-.33-.08-.68,0-1.02.16-.38.43-.7.77-.92,2.18-1.77,4.5-3.36,6.93-4.76-1.67-2.56-3.67-4.87-5.96-6.89-2.13-1.87-11.8-4.8-26.07-1.54-3.3.76-5.92,2.6-8.86,4.11Z"/><path class="cls-23_polaroid-32" d="M283.37,355.29c-.58,2.7-1.24,5.63-.05,8.13,1.29,2.7,4.66,4.08,7.58,3.43,2.96-.76,5.35-2.94,6.38-5.83.67-1.55.71-3.3.12-4.89-.49-1.08-1.36-1.94-1.88-3.01-1.09-2.21-.49-5.04-1.86-7.09-1.11-1.66-3.24-2.31-5.24-2.44-1.2-.11-2.4.11-3.48.64-1.96,1.09-1.96,2.68-1.43,4.51.5,2.16.45,4.41-.14,6.54Z"/><path class="cls-7_polaroid-32" d="M285.57,354.62c1.1,1.03,2.54,1.63,4.05,1.68.91.06,1.82-.15,2.62-.6.52-.34.97-.78,1.33-1.29,1.16-1.64,1.58-3.69,1.15-5.66-.11-.68-.45-1.29-.97-1.74-.43-.28-.91-.44-1.42-.49-2.73-.31-5.44.63-7.4,2.56-1.73,1.66-.97,3.98.65,5.54Z"/><path class="cls-23_polaroid-32" d="M278.21,348.24c2.25,2.53,5.23,4.52,8.54,4.82,3.86.26,7.52-1.72,9.42-5.08.77-1.5,1.32-3.09,1.64-4.75.91-3.57,1.07-7.3.47-10.93-.72-3.61-2.66-7.07-5.7-8.96-2.24-1.31-4.82-1.93-7.41-1.79-3.44.01-6.77,1.25-9.38,3.48-1.57,1.43-2.7,3.28-3.25,5.32-.55,2.06-.05,3.5.3,5.46.86,4.68,2.18,8.83,5.38,12.42Z"/><path class="cls-21_polaroid-32" d="M271.33,336.53c.02.2.1.4.24.55.29.2.67.25,1,.13,1.9-.37,3.78-.87,5.62-1.49.03-1.2-.08-2.4-.31-3.58.61.9,1.06,1.9,1.35,2.94,2.78-.86,5.61-1.56,8.48-2.08-.59-.96-.93-2.06-.97-3.19.3,1,.8,1.94,1.46,2.76.13.17.3.31.49.4.39.07.78-.04,1.09-.29,1.84-1.09,3.9-1.72,6.03-1.86l-.18-1.38c.58.65,1.1,1.35,1.54,2.1.65-.73,1.58-1.16,2.56-1.19l-1.8-4.54c-.62-2.34-2.35-4.24-4.62-5.07-1.44-.79-2.96-1.44-4.53-1.91-2.7-.66-5.53-.47-8.12.55-2.57,1.02-4.89,2.59-6.81,4.58-.73.69-1.33,1.51-1.76,2.42-.39.92-.22,1.81-.4,2.75-.52,2.53-.89,4.81-.34,7.38Z"/><path class="cls-10_polaroid-32" d="M271.33,336.53c.02.2.1.4.24.55.29.2.67.25,1,.13,1.9-.37,3.78-.87,5.62-1.49.03-1.2-.08-2.4-.31-3.58.61.9,1.06,1.9,1.35,2.94,2.78-.86,5.61-1.56,8.48-2.08-.59-.96-.93-2.06-.97-3.19.3,1,.8,1.94,1.46,2.76.13.17.3.31.49.4.39.07.78-.04,1.09-.29,1.84-1.09,3.9-1.72,6.03-1.86l-.18-1.38c.58.65,1.1,1.35,1.54,2.1.65-.73,1.58-1.16,2.56-1.19l-1.8-4.54c-.62-2.34-2.35-4.24-4.62-5.07-1.44-.79-2.96-1.44-4.53-1.91-2.7-.66-5.53-.47-8.12.55-2.57,1.02-4.89,2.59-6.81,4.58-.73.69-1.33,1.51-1.76,2.42-.39.92-.22,1.81-.4,2.75-.52,2.53-.89,4.81-.34,7.38Z"/><path class="cls-23_polaroid-32" d="M275.58,390.13c-.5,2.69-2.43,5.32-5.13,5.75-3.47.55-6.38-2.49-8.42-5.35-5.57-7.78-7.88-19.09-12.24-23.26-1.59-1.54-2.84-7.26-.99-8.48.94-.62,1.16-1.39,1.35-2.5.04-.33-.01-.67-.15-.97-.83-2.1-2.68-6.2-2.31-6.36s.77-.77,1.02-.59c1.8,1.28,3.36,4.68,4.5,6.57-.64-2.5,1.36-9.88,2.68-7.67.22.36-.15,9.38,1.25,10.25.4.25.89.32,1.28.61.88.65.77,1.96.65,3.08-.55,6.21,2.85,12,6.16,17.31-.08-.92,1.29-1.08,2.17-.77,2.21.7,5.97,2.14,7.33,4.18s1.26,5.96.85,8.18Z"/></g></svg>